<svg xmlns="http://www.w3.org/2000/svg" viewBox="0 0 2402.67 464"><defs><style>.cls-1{fill:#ebffe3;}.cls-2{fill:none;stroke:#000;stroke-miterlimit:10;stroke-width:1.5px;}</style></defs><g id="Vrstva_2" data-name="Vrstva 2"><g id="Vrstva_1-2" data-name="Vrstva 1"><rect class="cls-1" x="0.34" width="2402" height="464"/><path class="cls-2" d="M2402.34,176.11l-68.94,34.73a69.28,69.28,0,0,1-62.29,0l-37.8-19.05a69.26,69.26,0,0,0-62.28,0l-37.8,19.05a69.26,69.26,0,0,1-62.28,0l-37.8-19.05a69.28,69.28,0,0,0-62.29,0l-37.8,19.05a69.26,69.26,0,0,1-62.28,0L1833,191.79a69.26,69.26,0,0,0-62.28,0l-37.8,19.05a69.28,69.28,0,0,1-62.29,0l-37.8-19.05a69.26,69.26,0,0,0-62.28,0l-37.8,19.05a69.26,69.26,0,0,1-62.28,0l-37.8-19.05a69.28,69.28,0,0,0-62.29,0l-37.8,19.05a69.26,69.26,0,0,1-62.28,0l-37.8-19.05a69.26,69.26,0,0,0-62.28,0l-37.8,19.05a69.28,69.28,0,0,1-62.29,0l-37.8-19.05a69.26,69.26,0,0,0-62.28,0l-37.8,19.05a69.26,69.26,0,0,1-62.28,0l-37.8-19.05a69.28,69.28,0,0,0-62.29,0l-37.8,19.05a69.26,69.26,0,0,1-62.28,0L632,191.79a69.26,69.26,0,0,0-62.28,0l-37.8,19.05a69.28,69.28,0,0,1-62.29,0l-37.8-19.05a69.26,69.26,0,0,0-62.28,0l-37.8,19.05a69.26,69.26,0,0,1-62.28,0l-37.8-19.05a69.28,69.28,0,0,0-62.29,0l-37.8,19.05a69.26,69.26,0,0,1-62.28,0L.34,176.11"/><path class="cls-2" d="M2402.34,233.47,2333.4,268.2a69.22,69.22,0,0,1-62.29,0l-37.8-19a69.2,69.2,0,0,0-62.28,0l-37.8,19a69.2,69.2,0,0,1-62.28,0l-37.8-19a69.22,69.22,0,0,0-62.29,0l-37.8,19a69.2,69.2,0,0,1-62.28,0l-37.8-19a69.2,69.2,0,0,0-62.28,0l-37.8,19a69.22,69.22,0,0,1-62.29,0l-37.8-19a69.2,69.2,0,0,0-62.28,0l-37.8,19a69.2,69.2,0,0,1-62.28,0l-37.8-19a69.22,69.22,0,0,0-62.29,0l-37.8,19a69.2,69.2,0,0,1-62.28,0l-37.8-19a69.2,69.2,0,0,0-62.28,0l-37.8,19a69.22,69.22,0,0,1-62.29,0l-37.8-19a69.2,69.2,0,0,0-62.28,0l-37.8,19a69.2,69.2,0,0,1-62.28,0l-37.8-19a69.22,69.22,0,0,0-62.29,0l-37.8,19a69.2,69.2,0,0,1-62.28,0l-37.8-19a69.2,69.2,0,0,0-62.28,0l-37.8,19a69.22,69.22,0,0,1-62.29,0l-37.8-19a69.2,69.2,0,0,0-62.28,0l-37.8,19a69.2,69.2,0,0,1-62.28,0l-37.8-19a69.22,69.22,0,0,0-62.29,0l-37.8,19a69.2,69.2,0,0,1-62.28,0L.34,233.47"/><path class="cls-2" d="M2402.34,290.84l-68.94,34.73a69.22,69.22,0,0,1-62.29,0l-37.8-19a69.2,69.2,0,0,0-62.28,0l-37.8,19a69.2,69.2,0,0,1-62.28,0l-37.8-19a69.22,69.22,0,0,0-62.29,0l-37.8,19a69.2,69.2,0,0,1-62.28,0l-37.8-19a69.2,69.2,0,0,0-62.28,0l-37.8,19a69.22,69.22,0,0,1-62.29,0l-37.8-19a69.2,69.2,0,0,0-62.28,0l-37.8,19a69.2,69.2,0,0,1-62.28,0l-37.8-19a69.22,69.22,0,0,0-62.29,0l-37.8,19a69.2,69.2,0,0,1-62.28,0l-37.8-19a69.2,69.2,0,0,0-62.28,0l-37.8,19a69.22,69.22,0,0,1-62.29,0l-37.8-19a69.2,69.2,0,0,0-62.28,0l-37.8,19a69.2,69.2,0,0,1-62.28,0l-37.8-19a69.22,69.22,0,0,0-62.29,0l-37.8,19a69.2,69.2,0,0,1-62.28,0l-37.8-19a69.2,69.2,0,0,0-62.28,0l-37.8,19a69.22,69.22,0,0,1-62.29,0l-37.8-19a69.2,69.2,0,0,0-62.28,0l-37.8,19a69.2,69.2,0,0,1-62.28,0l-37.8-19a69.22,69.22,0,0,0-62.29,0l-37.8,19a69.2,69.2,0,0,1-62.28,0L.34,290.84"/><path class="cls-2" d="M2402.34,348.21l-68.94,34.73a69.28,69.28,0,0,1-62.29,0l-37.8-19a69.2,69.2,0,0,0-62.28,0l-37.8,19a69.26,69.26,0,0,1-62.28,0l-37.8-19a69.22,69.22,0,0,0-62.29,0l-37.8,19a69.26,69.26,0,0,1-62.28,0l-37.8-19a69.2,69.2,0,0,0-62.28,0l-37.8,19a69.28,69.28,0,0,1-62.29,0l-37.8-19a69.2,69.2,0,0,0-62.28,0l-37.8,19a69.26,69.26,0,0,1-62.28,0l-37.8-19a69.22,69.22,0,0,0-62.29,0l-37.8,19a69.26,69.26,0,0,1-62.28,0l-37.8-19a69.2,69.2,0,0,0-62.28,0l-37.8,19a69.28,69.28,0,0,1-62.29,0l-37.8-19a69.2,69.2,0,0,0-62.28,0l-37.8,19a69.26,69.26,0,0,1-62.28,0l-37.8-19a69.22,69.22,0,0,0-62.29,0l-37.8,19a69.26,69.26,0,0,1-62.28,0l-37.8-19a69.2,69.2,0,0,0-62.28,0l-37.8,19a69.28,69.28,0,0,1-62.29,0l-37.8-19a69.2,69.2,0,0,0-62.28,0l-37.8,19a69.26,69.26,0,0,1-62.28,0l-37.8-19a69.22,69.22,0,0,0-62.29,0l-37.8,19a69.26,69.26,0,0,1-62.28,0L.34,348.21"/><path class="cls-2" d="M2402.34,405.58,2333.4,440.3a69.22,69.22,0,0,1-62.29,0l-37.8-19a69.26,69.26,0,0,0-62.28,0l-37.8,19a69.2,69.2,0,0,1-62.28,0l-37.8-19a69.28,69.28,0,0,0-62.29,0l-37.8,19a69.2,69.2,0,0,1-62.28,0l-37.8-19a69.26,69.26,0,0,0-62.28,0l-37.8,19a69.22,69.22,0,0,1-62.29,0l-37.8-19a69.26,69.26,0,0,0-62.28,0l-37.8,19a69.2,69.2,0,0,1-62.28,0l-37.8-19a69.28,69.28,0,0,0-62.29,0l-37.8,19a69.2,69.2,0,0,1-62.28,0l-37.8-19a69.26,69.26,0,0,0-62.28,0l-37.8,19a69.22,69.22,0,0,1-62.29,0l-37.8-19a69.26,69.26,0,0,0-62.28,0l-37.8,19a69.2,69.2,0,0,1-62.28,0l-37.8-19a69.28,69.28,0,0,0-62.29,0l-37.8,19a69.2,69.2,0,0,1-62.28,0l-37.8-19a69.26,69.26,0,0,0-62.28,0l-37.8,19a69.22,69.22,0,0,1-62.29,0l-37.8-19a69.26,69.26,0,0,0-62.28,0l-37.8,19a69.2,69.2,0,0,1-62.28,0l-37.8-19a69.28,69.28,0,0,0-62.29,0l-37.8,19a69.2,69.2,0,0,1-62.28,0L.34,405.58"/></g></g></svg>