<svg xmlns="http://www.w3.org/2000/svg" viewBox="0 0 2402.67 464"><defs><style>.cls-1{fill:#ebffe3;}.cls-2{fill:none;stroke:#000;stroke-miterlimit:10;stroke-width:1.5px;}</style></defs><g id="Vrstva_2" data-name="Vrstva 2"><g id="Vrstva_1-2" data-name="Vrstva 1"><rect class="cls-1" x="0.34" width="2402" height="464"/><path class="cls-2" d="M2402.34,19.25,2333.4,54a69.22,69.22,0,0,1-62.29,0l-37.8-19a69.2,69.2,0,0,0-62.28,0l-37.8,19A69.2,69.2,0,0,1,2071,54l-37.8-19a69.22,69.22,0,0,0-62.29,0l-37.8,19a69.2,69.2,0,0,1-62.28,0l-37.8-19a69.2,69.2,0,0,0-62.28,0l-37.8,19a69.22,69.22,0,0,1-62.29,0l-37.8-19a69.2,69.2,0,0,0-62.28,0l-37.8,19a69.2,69.2,0,0,1-62.28,0l-37.8-19a69.22,69.22,0,0,0-62.29,0l-37.8,19a69.2,69.2,0,0,1-62.28,0l-37.8-19a69.2,69.2,0,0,0-62.28,0l-37.8,19a69.22,69.22,0,0,1-62.29,0l-37.8-19a69.2,69.2,0,0,0-62.28,0l-37.8,19A69.2,69.2,0,0,1,870,54l-37.8-19a69.22,69.22,0,0,0-62.29,0l-37.8,19a69.2,69.2,0,0,1-62.28,0l-37.8-19a69.2,69.2,0,0,0-62.28,0L531.9,54a69.22,69.22,0,0,1-62.29,0l-37.8-19a69.2,69.2,0,0,0-62.28,0l-37.8,19a69.2,69.2,0,0,1-62.28,0l-37.8-19a69.22,69.22,0,0,0-62.29,0l-37.8,19a69.2,69.2,0,0,1-62.28,0L.34,19.25"/><path class="cls-2" d="M2402.34,76.61l-68.94,34.73a69.22,69.22,0,0,1-62.29,0l-37.8-19a69.2,69.2,0,0,0-62.28,0l-37.8,19a69.2,69.2,0,0,1-62.28,0l-37.8-19a69.22,69.22,0,0,0-62.29,0l-37.8,19a69.2,69.2,0,0,1-62.28,0l-37.8-19a69.2,69.2,0,0,0-62.28,0l-37.8,19a69.22,69.22,0,0,1-62.29,0l-37.8-19a69.2,69.2,0,0,0-62.28,0l-37.8,19a69.2,69.2,0,0,1-62.28,0l-37.8-19a69.22,69.22,0,0,0-62.29,0l-37.8,19a69.2,69.2,0,0,1-62.28,0l-37.8-19a69.2,69.2,0,0,0-62.28,0l-37.8,19a69.22,69.22,0,0,1-62.29,0l-37.8-19a69.2,69.2,0,0,0-62.28,0l-37.8,19a69.2,69.2,0,0,1-62.28,0l-37.8-19a69.22,69.22,0,0,0-62.29,0l-37.8,19a69.2,69.2,0,0,1-62.28,0L632,92.3a69.2,69.2,0,0,0-62.28,0l-37.8,19a69.22,69.22,0,0,1-62.29,0l-37.8-19a69.2,69.2,0,0,0-62.28,0l-37.8,19a69.2,69.2,0,0,1-62.28,0l-37.8-19a69.22,69.22,0,0,0-62.29,0l-37.8,19a69.2,69.2,0,0,1-62.28,0L.34,76.61"/><path class="cls-2" d="M2402.34,134l-68.94,34.73a69.28,69.28,0,0,1-62.29,0l-37.8-19a69.2,69.2,0,0,0-62.28,0l-37.8,19a69.26,69.26,0,0,1-62.28,0l-37.8-19a69.22,69.22,0,0,0-62.29,0l-37.8,19a69.26,69.26,0,0,1-62.28,0l-37.8-19a69.2,69.2,0,0,0-62.28,0l-37.8,19a69.28,69.28,0,0,1-62.29,0l-37.8-19a69.2,69.2,0,0,0-62.28,0l-37.8,19a69.26,69.26,0,0,1-62.28,0l-37.8-19a69.22,69.22,0,0,0-62.29,0l-37.8,19a69.26,69.26,0,0,1-62.28,0l-37.8-19a69.2,69.2,0,0,0-62.28,0l-37.8,19a69.28,69.28,0,0,1-62.29,0l-37.8-19a69.2,69.2,0,0,0-62.28,0l-37.8,19a69.26,69.26,0,0,1-62.28,0l-37.8-19a69.22,69.22,0,0,0-62.29,0l-37.8,19a69.26,69.26,0,0,1-62.28,0l-37.8-19a69.2,69.2,0,0,0-62.28,0l-37.8,19a69.28,69.28,0,0,1-62.29,0l-37.8-19a69.2,69.2,0,0,0-62.28,0l-37.8,19a69.26,69.26,0,0,1-62.28,0l-37.8-19a69.22,69.22,0,0,0-62.29,0l-37.8,19a69.26,69.26,0,0,1-62.28,0L.34,134"/></g></g></svg>